# xmcd CD database file
#
# Track frame offsets:
#	150
#	14626
#	29089
#	41374
#	59469
#	77445
#	90532
#	113895
#	126808
#	144136
#	161149
#	176522
#	196810
#	211200
#	223877
#	245370
#	257787
#	277184
#
# Disc length: 3890 seconds
#
# Revision: 1
# Processed by: cddbd v1.5.2PL0 Copyright (c) Steve Scherf et al.
# Submitted via: CDex 2.18
#
DISCID=050f3012
DTITLE=Fernest Arceneaux - Zydeco Stomp
DYEAR=2011
DGENRE=Blues
TTITLE0=Got You On My Mind
TTITLE1=Bernadette
TTITLE2=Bye Bye Lucille
TTITLE3=Done Got Over You
TTITLE4=I Can't Live Happy
TTITLE5=Big Mamou
TTITLE6=Sweet Little Angel
TTITLE7=Zydeco Stomp
TTITLE8=Back To Louisiana
TTITLE9=Night Time
TTITLE10=Mother's Love
TTITLE11=Last Night
TTITLE12=It's Alright
TTITLE13=I Don't Want Nobody
TTITLE14=Mean Woman
TTITLE15=London Zydeco
TTITLE16=Chains of Love
TTITLE17=Reconsider Baby
EXTD=YEAR: 2011
EXTT0=
EXTT1=
EXTT2=
EXTT3=
EXTT4=
EXTT5=
EXTT6=
EXTT7=
EXTT8=
EXTT9=
EXTT10=
EXTT11=
EXTT12=
EXTT13=
EXTT14=
EXTT15=
EXTT16=
EXTT17=
PLAYORDER=
